<svg width="84" height="82" viewBox="0 0 84 82" fill="none" xmlns="http://www.w3.org/2000/svg">
<path d="M14.875 0H69.125C77.35 0 84 6.65812 84 14.8932V67.1068C84 75.3419 77.35 82 69.125 82H14.875C6.65 82 0 75.3419 0 67.1068V14.8932C0 6.65812 6.65 0 14.875 0Z" fill="#470137"/>
<path d="M44.17 21.5513L33.67 38.8974L44.87 57.2949C44.94 57.4351 44.975 57.5752 44.94 57.7154C44.905 57.8556 44.765 57.7504 44.555 57.7855H36.54C35.98 57.7855 35.595 57.7504 35.35 57.4C34.615 55.9282 33.845 54.4915 33.11 53.0197C32.375 51.5829 31.57 50.1111 30.73 48.6043C29.8901 47.0974 29.05 45.5906 28.21 44.0487H28.1401C27.4051 45.5556 26.6 47.0624 25.7951 48.5692C24.9901 50.0761 24.1851 51.5829 23.4151 53.0547C22.6101 54.5265 21.8051 56.0333 21.0001 57.4701C20.8601 57.8205 20.5801 57.8556 20.1951 57.8556H12.4951C12.3551 57.8556 12.2501 57.9257 12.2501 57.7504C12.2151 57.6103 12.2501 57.4701 12.3201 57.365L23.2051 39.4932L12.6001 21.5162C12.4951 21.3761 12.4601 21.2359 12.5301 21.1658C12.6001 21.0607 12.7401 21.0256 12.8801 21.0256H20.8251C21.0001 21.0256 21.1751 21.0607 21.3151 21.0957C21.4551 21.1658 21.5601 21.2709 21.6651 21.4111C22.3301 22.9179 23.1001 24.4248 23.9051 25.9316C24.7451 27.4385 25.5501 28.9103 26.4251 30.382C27.2651 31.8538 28.035 33.3256 28.77 34.8325H28.84C29.5751 33.2906 30.345 31.7838 31.115 30.312C31.885 28.8402 32.69 27.3684 33.495 25.8966C34.3 24.4248 35.07 22.9179 35.84 21.4812C35.875 21.341 35.945 21.2008 36.05 21.1308C36.19 21.0607 36.33 21.0256 36.505 21.0607H43.89C44.065 21.0256 44.24 21.1308 44.275 21.306C44.31 21.341 44.24 21.4812 44.17 21.5513Z" fill="#FF61F6"/>
<path d="M60.3401 58.5214C57.7501 58.5564 55.1601 58.0308 52.8151 56.9444C50.6101 55.9282 48.7901 54.2461 47.5301 52.1786C46.2351 50.041 45.6051 47.3778 45.6051 44.1889C45.5701 41.5957 46.2351 39.0376 47.5301 36.7948C48.8601 34.5171 50.7851 32.6248 53.0951 31.3632C55.5451 29.9965 58.4851 29.3307 61.9501 29.3307C62.1251 29.3307 62.3701 29.3307 62.6851 29.3658C63.0001 29.4008 63.3501 29.4008 63.7701 29.4359V18.3624C63.7701 18.1171 63.8751 17.9769 64.1201 17.9769H71.2252C71.4002 17.9418 71.5402 18.082 71.5752 18.2222C71.5752 18.2572 71.5752 18.2923 71.5752 18.2923V51.653C71.5752 52.2837 71.6102 52.9846 71.6452 53.7555C71.7152 54.4914 71.7502 55.1923 71.7852 55.788C71.7852 56.0333 71.6802 56.2436 71.4352 56.3487C69.6152 57.1196 67.6902 57.6803 65.7301 58.0308C63.9451 58.3461 62.1601 58.5214 60.3401 58.5214ZM63.7701 51.5128V36.094C63.4551 36.0239 63.1401 35.9538 62.8251 35.9188C62.4401 35.8837 62.0551 35.8487 61.6701 35.8487C60.3051 35.8487 58.9401 36.129 57.7151 36.7598C56.5251 37.3555 55.5101 38.2316 54.7401 39.353C53.9701 40.4743 53.5851 41.9812 53.5851 43.8034C53.5501 45.0299 53.7601 46.2564 54.1801 47.4128C54.5301 48.359 55.0551 49.2 55.7551 49.9008C56.4201 50.5316 57.2251 51.0222 58.1351 51.3025C59.0801 51.6179 60.0601 51.7581 61.0401 51.7581C61.5651 51.7581 62.0551 51.7231 62.5101 51.688C62.9651 51.7231 63.3501 51.653 63.7701 51.5128Z" fill="#FF61F6"/>
</svg>
