<svg width="1128" height="1199" viewBox="0 0 1128 1199" fill="none" xmlns="http://www.w3.org/2000/svg">
<g filter="url(#filter0_bi)">
<rect x="85.9579" y="482.453" width="521" height="653" rx="50" transform="rotate(7.29864 85.9579 482.453)" fill="url(#paint0_radial)"/>
<path d="M183.191 973.883L189.996 974.755L187.522 994.071L190.143 994.407L192.617 975.09L199.422 975.962L199.72 973.637L183.489 971.558L183.191 973.883ZM201.905 973.917L208.095 987.641L206.952 996.56L209.573 996.895L210.715 987.977L220.165 976.256L217.163 975.871L209.867 985.205L209.614 985.172L204.906 974.301L201.905 973.917ZM220.782 998.331L223.403 998.667L224.415 990.763L229.149 991.369C234.19 992.014 236.854 989.241 237.344 985.416C237.834 981.59 235.949 978.277 230.866 977.626L223.554 976.69L220.782 998.331ZM224.713 988.438L225.877 979.35L230.484 979.94C234.003 980.391 235.099 982.486 234.766 985.085C234.433 987.685 232.839 989.479 229.362 989.033L224.713 988.438ZM259.317 992.268C260.194 985.421 256.725 980.637 251.188 979.928C245.651 979.219 241.088 982.974 240.211 989.821C239.334 996.669 242.803 1001.45 248.34 1002.16C253.877 1002.87 258.44 999.116 259.317 992.268ZM256.781 991.944C256.06 997.565 252.585 1000.21 248.654 999.71C244.723 999.206 242.027 995.768 242.747 990.146C243.467 984.524 246.943 981.876 250.874 982.38C254.805 982.883 257.501 986.322 256.781 991.944ZM279.037 990.67L281.742 991.016C281.475 986.729 278.335 983.405 273.77 982.821C268.222 982.11 263.755 985.877 262.878 992.724C262.001 999.572 265.343 1004.34 271.091 1005.08C276.248 1005.74 280.365 1002.77 281.051 997.415L281.349 995.09L273.107 994.035L272.809 996.359L278.515 997.09C277.943 1000.97 275.072 1003.09 271.405 1002.62C267.39 1002.11 264.694 998.671 265.414 993.049C266.134 987.428 269.609 984.779 273.456 985.272C276.583 985.673 278.481 987.709 279.037 990.67ZM284.451 1006.49L287.072 1006.82L288.155 998.368L292.889 998.974C293.079 998.998 293.259 999.021 293.44 999.034L296.921 1008.08L299.964 1008.47L296.216 998.906C299.095 998.319 300.672 996.233 301.04 993.359C301.53 989.534 299.608 986.431 294.536 985.781L287.223 984.844L284.451 1006.49ZM288.458 996.001L289.546 987.505L294.153 988.095C297.662 988.544 298.795 990.429 298.462 993.029C298.129 995.628 296.574 997.04 293.108 996.596L288.458 996.001ZM304.373 1009.04L307.335 1003.19L316.084 1004.31L317.476 1010.72L320.224 1011.07L315.049 988.408L312.344 988.062L301.626 1008.69L304.373 1009.04ZM308.457 1000.97L313.173 991.648L313.342 991.67L315.558 1001.88L308.457 1000.97ZM323.595 1011.5L326.215 1011.83L327.228 1003.93L331.962 1004.54C337.002 1005.18 339.667 1002.41 340.156 998.584C340.646 994.759 338.762 991.445 333.679 990.794L326.366 989.858L323.595 1011.5ZM327.525 1001.61L328.689 992.518L333.297 993.108C336.815 993.559 337.911 995.654 337.578 998.254C337.245 1000.85 335.651 1002.65 332.175 1002.2L327.525 1001.61ZM342.483 1013.92L345.104 1014.25L346.344 1004.57L357.883 1006.05L356.643 1015.73L359.264 1016.07L362.036 994.426L359.415 994.091L358.181 1003.73L346.641 1002.25L347.876 992.613L345.255 992.277L342.483 1013.92ZM365.422 994.86L371.612 1008.58L370.47 1017.5L373.091 1017.84L374.233 1008.92L383.682 997.199L380.681 996.814L373.385 1006.15L373.132 1006.12L368.423 995.244L365.422 994.86Z" fill="white"/>
<path d="M198.591 817.868L188.72 816.604L178.279 898.119L188.15 899.384L198.591 817.868ZM220.772 866.181C222.139 855.514 229.521 850.31 238.516 851.462C247.233 852.579 251.798 858.948 250.569 868.541L245.675 906.751L255.069 907.955L260.044 869.107C262.042 853.504 254.682 844.956 242.303 843.371C233.069 842.188 226.807 845.593 223.146 851.436L222.35 851.334L223.574 841.781L214.499 840.619L206.668 901.756L216.062 902.959L220.772 866.181ZM306.652 852.421L293.597 850.749L295.473 836.102L286.079 834.899L284.203 849.546L274.969 848.364L273.949 856.324L283.184 857.507L278.29 895.717C276.923 906.385 284.868 912.58 292.829 913.6C296.332 914.049 298.642 913.697 299.977 913.383L299.147 904.7C298.331 904.757 297.016 904.912 294.946 904.647C290.807 904.117 286.99 902.334 288.009 894.373L292.577 858.71L305.632 860.382L306.652 852.421ZM337.765 919.841C350.183 921.431 360.053 916.384 364.102 907.517L355.353 903.808C352.149 909.87 346.209 912.346 338.845 911.403C327.82 909.991 321.13 901.892 322.37 888.741L366.75 894.425L367.259 890.445C370.175 867.678 357.642 858.143 344.905 856.512C328.347 854.391 315.689 866.039 313.283 884.826C310.877 903.613 320.092 917.577 337.765 919.841ZM323.41 880.621C325.265 871.19 333.077 863.573 343.824 864.95C354.014 866.255 359.562 874.733 358.237 885.082L323.41 880.621ZM377.531 923.64L386.925 924.843L391.88 886.154C392.94 877.875 400.243 872.661 409.159 873.803C411.666 874.125 414.192 874.934 414.809 875.174L416.032 865.622C414.968 865.404 412.51 865.009 411.117 864.83C403.793 863.892 396.895 867.216 393.891 872.981L393.254 872.899L394.437 863.665L385.362 862.503L377.531 923.64Z" fill="white"/>
<mask id="mask0" mask-type="alpha" maskUnits="userSpaceOnUse" x="258" y="571" width="140" height="139">
<rect x="274.223" y="571.089" width="124" height="124" transform="rotate(7.29864 274.223 571.089)" fill="#C4C4C4"/>
</mask>
<g mask="url(#mask0)">
<path d="M312.4 675.857L363.446 682.395C363.787 682.439 364.139 682.484 364.467 682.563L364.472 682.527C372.808 683.594 380.461 677.682 381.529 669.343C382.597 661.005 376.681 653.354 368.345 652.286C367.16 652.135 365.916 652.132 364.638 652.278C364.223 652.327 363.802 652.199 363.485 651.923C363.168 651.646 362.979 651.256 362.968 650.837C362.658 639.855 354.528 630.879 343.638 629.484C331.503 627.929 320.369 636.536 318.814 648.67C318.738 649.269 318.705 649.861 318.677 650.451C318.657 650.898 318.439 651.31 318.084 651.577C317.725 651.849 317.267 651.941 316.837 651.838C316.402 651.737 315.961 651.649 315.508 651.591C308.819 650.734 302.679 655.48 301.823 662.169C300.965 668.861 305.711 675.001 312.4 675.858L312.4 675.857ZM315.807 648.612C315.819 648.506 315.833 648.397 315.846 648.29C317.61 634.518 330.249 624.752 344.019 626.515C355.86 628.032 364.826 637.445 365.87 649.188C366.843 649.154 367.798 649.199 368.726 649.318C378.7 650.596 385.775 659.75 384.498 669.724C383.22 679.697 374.066 686.773 364.084 685.494L350.591 683.766L312.021 678.826C303.693 677.76 297.788 670.119 298.855 661.789C299.917 653.492 307.511 647.595 315.808 648.612" fill="white"/>
<path d="M290.022 668.018C281.009 664.644 273.687 657.887 269.7 649.127C261.404 630.904 269.502 609.329 287.724 601.034C305.946 592.738 327.475 600.779 335.77 619.001C336.961 621.616 333.423 622.283 332.598 620.471C325.093 603.984 305.623 596.747 289.136 604.252C272.65 611.757 265.423 631.124 272.928 647.611C276.528 655.519 283.089 661.693 291.227 664.739C293.26 665.5 292.425 668.918 290.021 668.018L290.022 668.018Z" fill="white"/>
</g>
<rect x="85.093" y="481.334" width="523" height="655" rx="51" transform="rotate(7.29864 85.093 481.334)" stroke="url(#paint1_linear)" stroke-opacity="0.4" stroke-width="2"/>
</g>
<g filter="url(#filter1_bi)">
<g clip-path="url(#clip0)">
<rect x="27.9276" y="361.01" width="521" height="653" rx="50" transform="rotate(-43.4056 27.9276 361.01)" fill="url(#paint2_radial)"/>
<path d="M302.062 299.345L345.123 258.617C345.409 258.346 345.708 258.064 346.015 257.829L345.987 257.8C353.02 251.148 353.37 240.052 346.764 233.068C340.156 226.082 329.058 225.814 322.025 232.465C321.027 233.409 320.113 234.52 319.313 235.761C319.053 236.167 318.632 236.447 318.156 236.532C317.682 236.614 317.193 236.496 316.816 236.204C306.864 228.533 292.97 229.278 283.786 237.965C273.55 247.646 273.042 263.794 282.659 273.962C283.131 274.461 283.638 274.919 284.14 275.367C284.518 275.713 284.726 276.206 284.703 276.716C284.683 277.225 284.427 277.704 284.024 278.012C283.616 278.325 283.217 278.657 282.836 279.017C277.192 284.355 276.913 293.259 282.212 298.861C287.513 304.466 296.419 304.683 302.062 299.345L302.062 299.345ZM280.414 276.597C280.327 276.506 280.241 276.419 280.156 276.329C269.244 264.792 269.82 246.464 281.435 235.478C291.423 226.031 306.31 224.858 317.477 232.427C318.155 231.538 318.89 230.715 319.672 229.976C328.086 222.017 341.364 222.343 349.268 230.699C357.172 239.056 356.756 252.329 348.335 260.294L336.953 271.06L304.417 301.833C297.392 308.478 286.308 308.206 279.709 301.229C273.133 294.276 273.455 283.248 280.414 276.597" fill="white"/>
<path d="M252.143 277.862C252.928 277.119 253.788 276.431 254.716 275.805C247.632 264.068 249.526 249.142 259.526 239.683C263.88 235.565 269.317 232.941 275.248 232.091C276.192 231.96 277.076 232.616 277.22 233.563C277.364 234.514 276.714 235.39 275.766 235.528C270.542 236.272 265.754 238.584 261.918 242.213C252.723 250.91 251.305 264.864 258.554 275.382C258.832 275.788 258.925 276.285 258.819 276.758C258.715 277.228 258.415 277.632 257.989 277.872C256.695 278.599 255.537 279.444 254.535 280.391C247.494 287.051 247.232 298.253 253.952 305.357C260.219 311.983 270.351 312.839 277.517 307.348C278.275 306.771 279.365 306.92 279.951 307.681C280.498 308.396 280.413 309.397 279.778 309.997C279.737 310.036 279.689 310.078 279.642 310.111C271.065 316.68 258.944 315.656 251.445 307.728C243.405 299.228 243.718 285.83 252.143 277.861" fill="white"/>
<path d="M313.286 312.715C312.55 313.414 312.518 314.572 313.214 315.312L315.157 317.366L313.103 319.309C312.367 320.004 312.335 321.166 313.03 321.905C313.73 322.641 314.891 322.673 315.627 321.978L317.681 320.035L319.621 322.089C320.317 322.825 321.478 322.857 322.217 322.161C322.587 321.812 322.78 321.343 322.793 320.876C322.806 320.406 322.639 319.931 322.29 319.565L320.35 317.51L322.401 315.567C322.771 315.218 322.963 314.756 322.976 314.286C322.989 313.815 322.823 313.34 322.473 312.971C321.774 312.235 320.612 312.203 319.877 312.898L317.826 314.841L315.883 312.787C315.187 312.051 314.025 312.019 313.286 312.715Z" fill="white"/>
<path d="M336.534 290.726C335.799 291.425 335.766 292.583 336.462 293.322L338.405 295.377L336.351 297.32C335.615 298.015 335.583 299.177 336.279 299.916C336.978 300.652 338.14 300.684 338.875 299.989L340.929 298.046L342.869 300.1C343.565 300.835 344.727 300.868 345.466 300.172C345.835 299.822 346.028 299.354 346.041 298.887C346.054 298.417 345.888 297.942 345.538 297.575L343.598 295.521L345.649 293.578C346.019 293.229 346.212 292.767 346.225 292.297C346.238 291.826 346.071 291.351 345.721 290.981C345.022 290.246 343.861 290.213 343.125 290.909L341.074 292.852L339.131 290.798C338.435 290.062 337.274 290.03 336.534 290.726Z" fill="white"/>
<path d="M359.783 268.737C359.047 269.436 359.015 270.594 359.71 271.333L361.653 273.388L359.599 275.331C358.863 276.026 358.831 277.188 359.527 277.927C360.226 278.663 361.388 278.695 362.123 278L364.178 276.057L366.117 278.111C366.813 278.847 367.975 278.879 368.714 278.183C369.084 277.833 369.277 277.365 369.289 276.898C369.303 276.428 369.136 275.952 368.786 275.586L366.847 273.532L368.897 271.589C369.267 271.24 369.46 270.778 369.473 270.308C369.486 269.837 369.319 269.362 368.97 268.992C368.27 268.257 367.109 268.224 366.373 268.92L364.322 270.863L362.379 268.809C361.683 268.073 360.522 268.041 359.783 268.737Z" fill="white"/>
<path d="M316.092 338.966C315.357 339.665 315.324 340.824 316.02 341.563L317.963 343.617L315.909 345.56C315.173 346.256 315.141 347.417 315.837 348.157C316.536 348.892 317.698 348.925 318.433 348.229L320.487 346.286L322.427 348.34C323.123 349.076 324.284 349.108 325.024 348.412C325.393 348.063 325.586 347.594 325.599 347.127C325.612 346.657 325.446 346.182 325.096 345.816L323.156 343.761L325.207 341.818C325.577 341.469 325.769 341.007 325.783 340.537C325.796 340.067 325.629 339.591 325.279 339.222C324.58 338.486 323.418 338.454 322.683 339.149L320.632 341.092L318.689 339.038C317.993 338.303 316.831 338.27 316.092 338.966Z" fill="white"/>
<path d="M339.341 316.977C338.605 317.676 338.572 318.834 339.268 319.574L341.211 321.628L339.157 323.571C338.421 324.267 338.389 325.428 339.085 326.168C339.784 326.903 340.946 326.936 341.681 326.24L343.736 324.297L345.675 326.351C346.371 327.087 347.533 327.119 348.272 326.423C348.641 326.074 348.834 325.605 348.847 325.138C348.86 324.668 348.694 324.193 348.344 323.827L346.405 321.772L348.455 319.829C348.825 319.48 349.018 319.018 349.031 318.548C349.044 318.078 348.877 317.602 348.528 317.233C347.828 316.497 346.667 316.465 345.931 317.16L343.88 319.103L341.937 317.049C341.241 316.314 340.08 316.281 339.341 316.977Z" fill="white"/>
<path d="M362.589 294.988C361.853 295.687 361.821 296.845 362.517 297.585L364.459 299.639L362.405 301.582C361.67 302.278 361.637 303.439 362.333 304.179C363.032 304.914 364.194 304.947 364.93 304.251L366.984 302.308L368.923 304.362C369.619 305.098 370.781 305.13 371.52 304.434C371.89 304.085 372.083 303.616 372.096 303.149C372.109 302.679 371.942 302.204 371.592 301.838L369.653 299.783L371.704 297.84C372.073 297.491 372.266 297.029 372.279 296.559C372.292 296.089 372.126 295.613 371.776 295.244C371.077 294.508 369.915 294.476 369.179 295.171L367.128 297.114L365.185 295.06C364.49 294.325 363.328 294.292 362.589 294.988Z" fill="white"/>
<path d="M479.177 648.842L481.035 647.085C478.688 644.774 474.791 645.073 471.726 647.972C468.692 650.841 467.977 654.861 470.495 657.523C472.516 659.66 475.264 659.465 478.415 657.834L480.892 656.547C483.003 655.43 485.045 654.613 486.539 656.191C488.179 657.925 487.59 660.652 485.392 662.731C483.504 664.517 481.041 665.262 479.188 663.613L477.207 665.487C479.852 667.912 483.627 667.686 487.032 664.465C490.685 661.009 490.856 657.035 488.426 654.465C485.615 651.493 481.89 653.198 479.839 654.317L477.819 655.406C476.35 656.209 473.876 657.376 472.265 655.674C470.83 654.157 471.169 651.724 473.274 649.733C475.194 647.918 477.513 647.455 479.177 648.842ZM495.652 655.784L505.342 646.618L503.732 644.916L495.961 652.266L490.866 646.879L498.017 640.114L496.407 638.412L489.255 645.176L484.189 639.82L491.836 632.587L490.226 630.884L480.659 639.933L495.652 655.784ZM511.126 620.501C507.463 617.807 503.047 618.347 499.858 621.363C495.802 625.199 495.819 631.108 500.562 636.123C505.306 641.139 511.205 641.484 515.26 637.648C518.449 634.632 519.234 630.253 516.748 626.445L514.828 628.261C516.443 630.898 515.667 633.861 513.562 635.852C510.683 638.575 506.315 638.484 502.42 634.366C498.525 630.249 498.677 625.882 501.556 623.159C503.662 621.168 506.663 620.558 509.206 622.317L511.126 620.501ZM530.413 607.89C525.669 602.874 519.77 602.529 515.715 606.365C511.659 610.201 511.676 616.11 516.419 621.125C521.163 626.141 527.062 626.486 531.117 622.65C535.173 618.814 535.157 612.905 530.413 607.89ZM528.555 609.647C532.45 613.764 532.298 618.131 529.419 620.854C526.54 623.577 522.171 623.486 518.277 619.368C514.382 615.251 514.534 610.884 517.413 608.161C520.292 605.438 524.661 605.529 528.555 609.647ZM538.713 585.023L536.825 586.809L548.626 599.286L548.471 599.432L528.002 595.155L526.144 596.912L541.137 612.763L543.056 610.947L531.285 598.502L531.439 598.355L551.848 602.631L553.706 600.874L538.713 585.023ZM562.438 592.615C567.268 588.046 567.152 582.467 562.467 577.513C557.811 572.591 552.276 572.195 547.663 576.558L542.554 581.39L557.547 597.241L562.438 592.615ZM557.856 593.723L546.084 581.277L549.149 578.378C552.864 574.864 556.978 575.431 560.609 579.27C564.27 583.14 564.636 587.31 560.704 591.029L557.856 593.723ZM573.117 582.514L570.466 576.517L576.874 570.455L582.715 573.436L584.727 571.533L563.914 561.187L561.933 563.061L571.105 584.417L573.117 582.514ZM569.459 574.243L565.233 564.69L565.357 564.573L574.66 569.324L569.459 574.243ZM587.196 569.198L589.116 567.382L583.259 561.191L586.727 557.911C586.866 557.779 586.997 557.655 587.122 557.522L596.329 560.56L598.558 558.451L588.781 555.293C590.15 552.693 589.535 550.152 587.544 548.046C584.894 545.245 581.275 544.767 577.559 548.281L572.204 553.347L587.196 569.198ZM581.619 559.457L575.734 553.234L579.108 550.042C581.678 547.612 583.854 547.929 585.655 549.833C587.456 551.737 587.563 553.835 585.025 556.236L581.619 559.457ZM584.251 541.952L598.792 545.854L604.97 552.386L606.89 550.571L600.711 544.038L597.625 529.302L595.427 531.381L598.029 542.939L597.843 543.114L586.449 539.873L584.251 541.952ZM623.678 514.045C620.015 511.351 615.599 511.891 612.41 514.907C608.354 518.743 608.371 524.652 613.114 529.668C617.858 534.683 623.757 535.028 627.812 531.192C631.001 528.176 631.786 523.797 629.3 519.99L627.38 521.805C628.995 524.442 628.219 527.405 626.114 529.396C623.235 532.12 618.866 532.028 614.972 527.911C611.077 523.793 611.229 519.426 614.108 516.703C616.214 514.712 619.215 514.102 621.758 515.861L623.678 514.045ZM642.965 501.434C638.221 496.419 632.322 496.073 628.267 499.909C624.211 503.745 624.228 509.654 628.971 514.669C633.715 519.685 639.614 520.03 643.669 516.194C647.725 512.358 647.709 506.449 642.965 501.434ZM641.107 503.191C645.002 507.308 644.85 511.675 641.971 514.398C639.092 517.122 634.723 517.03 630.829 512.913C626.934 508.795 627.086 504.428 629.965 501.705C632.844 498.982 637.213 499.073 641.107 503.191ZM653.689 506.307L662.976 497.522L661.366 495.819L653.998 502.788L640.615 488.64L638.696 490.456L653.689 506.307ZM671.209 474.719C666.465 469.704 660.567 469.359 656.511 473.195C652.456 477.031 652.472 482.939 657.216 487.955C661.959 492.97 667.858 493.315 671.914 489.479C675.969 485.643 675.953 479.735 671.209 474.719ZM669.352 476.476C673.246 480.594 673.095 484.96 670.215 487.684C667.336 490.407 662.968 490.316 659.073 486.198C655.179 482.08 655.33 477.714 658.21 474.99C661.089 472.267 665.457 472.359 669.352 476.476ZM681.933 479.592L683.852 477.777L677.996 471.585L681.463 468.305C681.603 468.173 681.734 468.049 681.859 467.917L691.066 470.954L693.295 468.846L683.518 465.687C684.887 463.088 684.272 460.546 682.281 458.441C679.631 455.639 676.011 455.161 672.296 458.675L666.94 463.741L681.933 479.592ZM676.356 469.851L670.47 463.628L673.845 460.437C676.415 458.006 678.591 458.323 680.392 460.227C682.193 462.131 682.3 464.229 679.762 466.63L676.356 469.851Z" fill="white"/>
<rect x="335.633" y="438.248" width="186" height="186" rx="18" transform="rotate(-43.4056 335.633 438.248)" fill="#6A64FC" fill-opacity="0.15"/>
</g>
<rect x="26.5139" y="360.97" width="523" height="655" rx="51" transform="rotate(-43.4056 26.5139 360.97)" stroke="url(#paint3_linear)" stroke-opacity="0.4" stroke-width="2"/>
</g>
<g filter="url(#filter2_bi)">
<rect x="639.743" y="398.453" width="521" height="653" rx="50" transform="rotate(21.3508 639.743 398.453)" fill="url(#paint4_radial)"/>
<path d="M585.986 926.881L588.447 927.843L591.348 920.421L595.793 922.159C600.526 924.009 603.784 921.965 605.189 918.374C606.593 914.782 605.569 911.11 600.796 909.244L593.93 906.56L585.986 926.881ZM592.202 918.238L595.537 909.705L599.863 911.396C603.167 912.688 603.722 914.986 602.768 917.427C601.813 919.868 599.832 921.221 596.567 919.945L592.202 918.238ZM603.722 933.814L606.183 934.776L609.286 926.838L613.731 928.576C613.91 928.646 614.078 928.712 614.251 928.768L615.431 938.391L618.288 939.508L616.976 929.318C619.91 929.447 621.947 927.807 623.002 925.108C624.406 921.516 623.295 918.039 618.532 916.178L611.666 913.493L603.722 933.814ZM610.155 924.616L613.273 916.638L617.599 918.329C620.894 919.617 621.535 921.721 620.581 924.162C619.627 926.603 617.775 927.595 614.521 926.322L610.155 924.616ZM631.999 921.442L629.538 920.48L621.595 940.801L624.056 941.763L631.999 921.442ZM636.933 923.371L628.989 943.691L631.291 944.591L637.327 929.152L637.525 929.23L637.84 947.151L640.063 948.02L652.448 935.063L652.646 935.141L646.611 950.58L648.913 951.48L656.857 931.159L653.92 930.011L640.42 944.179L640.182 944.086L639.87 924.519L636.933 923.371ZM654.681 953.734L658.974 948.778L667.19 951.99L666.984 958.544L669.564 959.552L670.046 936.315L667.506 935.322L652.101 952.726L654.681 953.734ZM660.601 946.898L667.44 939.002L667.599 939.064L667.269 949.504L660.601 946.898ZM672.729 960.789L675.19 961.751L678.293 953.814L682.738 955.551C682.917 955.621 683.085 955.687 683.258 955.743L684.437 965.366L687.295 966.483L685.982 956.293C688.917 956.423 690.954 954.782 692.009 952.083C693.413 948.492 692.302 945.014 687.539 943.153L680.673 940.469L672.729 960.789ZM679.162 951.591L682.28 943.613L686.606 945.305C689.9 946.592 690.542 948.696 689.588 951.137C688.634 953.578 686.782 954.57 683.527 953.298L679.162 951.591ZM696.117 946.506L698.789 961.322L695.516 969.697L697.976 970.659L701.25 962.284L713.262 953.208L710.444 952.107L701.101 959.389L700.862 959.296L698.935 947.607L696.117 946.506ZM738.173 970.266C739.048 965.804 736.676 962.04 732.588 960.442C727.389 958.41 722.051 960.945 719.538 967.374C717.024 973.804 719.228 979.286 724.427 981.319C728.515 982.917 732.811 981.759 735.194 977.887L732.733 976.925C731.036 979.51 728.026 980.072 725.327 979.017C721.636 977.574 719.856 973.584 721.919 968.305C723.983 963.026 727.997 961.301 731.688 962.744C734.387 963.799 736.218 966.254 735.712 969.304L738.173 970.266ZM757.805 982.333C760.319 975.904 758.115 970.421 752.916 968.389C747.717 966.356 742.379 968.891 739.866 975.321C737.353 981.75 739.556 987.233 744.755 989.265C749.955 991.298 755.292 988.763 757.805 982.333ZM755.424 981.402C753.361 986.681 749.346 988.406 745.655 986.963C741.964 985.52 740.184 981.53 742.247 976.252C744.311 970.973 748.325 969.248 752.016 970.691C755.707 972.134 757.487 976.124 755.424 981.402ZM757.971 994.111L769.878 998.765L770.731 996.583L761.285 992.89L768.375 974.752L765.915 973.79L757.971 994.111ZM794.014 996.487C796.528 990.058 794.324 984.575 789.125 982.543C783.926 980.511 778.588 983.045 776.075 989.475C773.561 995.904 775.765 1001.39 780.964 1003.42C786.163 1005.45 791.501 1002.92 794.014 996.487ZM791.633 995.557C789.569 1000.84 785.555 1002.56 781.864 1001.12C778.173 999.675 776.393 995.684 778.456 990.406C780.519 985.127 784.534 983.402 788.225 984.845C791.916 986.288 793.696 990.278 791.633 995.557ZM794.18 1008.27L796.641 1009.23L799.744 1001.29L804.189 1003.03C804.367 1003.1 804.536 1003.16 804.709 1003.22L805.888 1012.84L808.746 1013.96L807.433 1003.77C810.368 1003.9 812.405 1002.26 813.46 999.559C814.864 995.967 813.752 992.49 808.99 990.629L802.123 987.944L794.18 1008.27ZM800.612 999.067L803.731 991.089L808.057 992.78C811.351 994.068 811.993 996.172 811.039 998.613C810.085 1001.05 808.233 1002.05 804.978 1000.77L800.612 999.067Z" fill="white"/>
<mask id="mask1" mask-type="alpha" maskUnits="userSpaceOnUse" x="755" y="530" width="162" height="161">
<rect x="800.853" y="530.148" width="124" height="124" transform="rotate(21.3508 800.853 530.148)" fill="#C4C4C4"/>
</mask>
<g mask="url(#mask1)">
<path d="M812.449 641.051L860.38 659.788C860.7 659.913 861.031 660.042 861.33 660.198L861.343 660.164C869.17 663.224 878.03 659.346 881.09 651.517C884.151 643.687 880.27 634.829 872.443 631.769C871.33 631.334 870.124 631.029 868.849 630.861C868.434 630.808 868.057 630.581 867.817 630.236C867.576 629.891 867.488 629.467 867.579 629.057C869.944 618.33 864.238 607.647 854.012 603.65C842.618 599.196 829.727 604.841 825.273 616.235C825.053 616.797 824.877 617.364 824.707 617.93C824.579 618.358 824.268 618.705 823.858 618.878C823.444 619.055 822.978 619.033 822.586 618.828C822.187 618.624 821.781 618.432 821.356 618.266C815.075 615.811 807.967 618.923 805.512 625.204C803.055 631.488 806.168 638.596 812.449 641.051L812.449 641.051ZM822.37 615.449C822.407 615.348 822.447 615.246 822.486 615.146C827.541 602.214 842.172 595.809 855.102 600.863C866.22 605.209 872.632 616.518 870.794 628.163C871.747 628.366 872.662 628.642 873.533 628.982C882.898 632.643 887.539 643.242 883.879 652.607C880.218 661.972 869.619 666.613 860.246 662.949L847.577 657.996L811.36 643.839C803.541 640.783 799.667 631.937 802.725 624.115C805.77 616.325 814.569 612.448 822.37 615.449" fill="white"/>
<path d="M792.644 628.013C784.72 622.552 779.258 614.219 777.516 604.753C773.894 585.061 786.988 566.098 806.679 562.475C826.37 558.853 845.302 571.88 848.925 591.571C849.445 594.397 845.851 594.184 845.491 592.226C842.214 574.411 825.083 562.663 807.267 565.94C789.452 569.218 777.739 586.25 781.017 604.066C782.589 612.612 787.454 620.194 794.609 625.125C796.396 626.357 794.757 629.47 792.643 628.013L792.644 628.013Z" fill="white"/>
</g>
<rect x="710.818" y="677.193" width="186" height="186" rx="18" transform="rotate(21.3508 710.818 677.193)" fill="#2186EF" fill-opacity="0.13"/>
<rect x="639.175" y="397.158" width="523" height="655" rx="51" transform="rotate(21.3508 639.175 397.158)" stroke="url(#paint5_linear)" stroke-opacity="0.4" stroke-width="2"/>
</g>
<defs>
<filter id="filter0_bi" x="-41.2378" y="438.215" width="688.212" height="802.373" filterUnits="userSpaceOnUse" color-interpolation-filters="sRGB">
<feFlood flood-opacity="0" result="BackgroundImageFix"/>
<feGaussianBlur in="BackgroundImage" stdDeviation="21"/>
<feComposite in2="SourceAlpha" operator="in" result="effect1_backgroundBlur"/>
<feBlend mode="normal" in="SourceGraphic" in2="effect1_backgroundBlur" result="shape"/>
<feColorMatrix in="SourceAlpha" type="matrix" values="0 0 0 0 0 0 0 0 0 0 0 0 0 0 0 0 0 0 127 0" result="hardAlpha"/>
<feOffset dx="-5" dy="-5"/>
<feGaussianBlur stdDeviation="125"/>
<feComposite in2="hardAlpha" operator="arithmetic" k2="-1" k3="1"/>
<feColorMatrix type="matrix" values="0 0 0 0 1 0 0 0 0 1 0 0 0 0 1 0 0 0 0.02 0"/>
<feBlend mode="normal" in2="shape" result="effect2_innerShadow"/>
</filter>
<filter id="filter1_bi" x="-16.8997" y="-41.8274" width="916.88" height="922.074" filterUnits="userSpaceOnUse" color-interpolation-filters="sRGB">
<feFlood flood-opacity="0" result="BackgroundImageFix"/>
<feGaussianBlur in="BackgroundImage" stdDeviation="21"/>
<feComposite in2="SourceAlpha" operator="in" result="effect1_backgroundBlur"/>
<feBlend mode="normal" in="SourceGraphic" in2="effect1_backgroundBlur" result="shape"/>
<feColorMatrix in="SourceAlpha" type="matrix" values="0 0 0 0 0 0 0 0 0 0 0 0 0 0 0 0 0 0 127 0" result="hardAlpha"/>
<feOffset dx="-5" dy="-5"/>
<feGaussianBlur stdDeviation="125"/>
<feComposite in2="hardAlpha" operator="arithmetic" k2="-1" k3="1"/>
<feColorMatrix type="matrix" values="0 0 0 0 1 0 0 0 0 1 0 0 0 0 1 0 0 0 0.02 0"/>
<feBlend mode="normal" in2="shape" result="effect2_innerShadow"/>
</filter>
<filter id="filter2_bi" x="357.409" y="353.862" width="812.167" height="887.05" filterUnits="userSpaceOnUse" color-interpolation-filters="sRGB">
<feFlood flood-opacity="0" result="BackgroundImageFix"/>
<feGaussianBlur in="BackgroundImage" stdDeviation="21"/>
<feComposite in2="SourceAlpha" operator="in" result="effect1_backgroundBlur"/>
<feBlend mode="normal" in="SourceGraphic" in2="effect1_backgroundBlur" result="shape"/>
<feColorMatrix in="SourceAlpha" type="matrix" values="0 0 0 0 0 0 0 0 0 0 0 0 0 0 0 0 0 0 127 0" result="hardAlpha"/>
<feOffset dx="-5" dy="-5"/>
<feGaussianBlur stdDeviation="125"/>
<feComposite in2="hardAlpha" operator="arithmetic" k2="-1" k3="1"/>
<feColorMatrix type="matrix" values="0 0 0 0 1 0 0 0 0 1 0 0 0 0 1 0 0 0 0.02 0"/>
<feBlend mode="normal" in2="shape" result="effect2_innerShadow"/>
</filter>
<radialGradient id="paint0_radial" cx="0" cy="0" r="1" gradientUnits="userSpaceOnUse" gradientTransform="translate(85.9579 482.453) rotate(51.4152) scale(835.374 565.958)">
<stop stop-color="#071329"/>
<stop offset="1" stop-color="#071329" stop-opacity="0.25"/>
</radialGradient>
<linearGradient id="paint1_linear" x1="85.9579" y1="482.453" x2="256.988" y2="1194.56" gradientUnits="userSpaceOnUse">
<stop stop-color="white"/>
<stop offset="1" stop-color="#EEEDED" stop-opacity="0.5"/>
</linearGradient>
<radialGradient id="paint2_radial" cx="0" cy="0" r="1" gradientUnits="userSpaceOnUse" gradientTransform="translate(27.9276 361.01) rotate(51.4152) scale(835.374 565.958)">
<stop stop-color="#2186EF" stop-opacity="0.4"/>
<stop offset="1" stop-color="#2186EF" stop-opacity="0.13"/>
</radialGradient>
<linearGradient id="paint3_linear" x1="27.9276" y1="361.01" x2="198.957" y2="1073.11" gradientUnits="userSpaceOnUse">
<stop stop-color="white"/>
<stop offset="1" stop-color="#EEEDED" stop-opacity="0.5"/>
</linearGradient>
<radialGradient id="paint4_radial" cx="0" cy="0" r="1" gradientUnits="userSpaceOnUse" gradientTransform="translate(639.743 398.453) rotate(51.4152) scale(835.374 565.958)">
<stop stop-color="#6A64FC" stop-opacity="0.4"/>
<stop offset="1" stop-color="#6A64FC" stop-opacity="0.04"/>
</radialGradient>
<linearGradient id="paint5_linear" x1="639.743" y1="398.453" x2="810.772" y2="1110.56" gradientUnits="userSpaceOnUse">
<stop stop-color="white"/>
<stop offset="1" stop-color="#EEEDED" stop-opacity="0.5"/>
</linearGradient>
<clipPath id="clip0">
<rect x="27.9276" y="361.01" width="521" height="653" rx="50" transform="rotate(-43.4056 27.9276 361.01)" fill="white"/>
</clipPath>
</defs>
</svg>
