<svg width="66" height="90" viewBox="0 0 66 90" fill="none" xmlns="http://www.w3.org/2000/svg">
<path d="M14.9538 90C23.2074 90 29.9051 83.2808 29.9051 75.0008V60.0016H14.9538C6.70018 60.0016 0.00244141 66.7208 0.00244141 75.0008C0.00244141 83.2808 6.70018 90 14.9538 90Z" fill="#0ACF83"/>
<path d="M0 45C0 36.72 6.69774 30.0008 14.9513 30.0008H29.9051V60.0016H14.9538C6.7002 59.9992 0 53.28 0 45Z" fill="#A259FF"/>
<path d="M0 14.9992C0 6.71918 6.69774 0 14.9513 0H29.9051V30.0008H14.9538C6.7002 30.0008 0 23.2792 0 14.9992Z" fill="#F24E1E"/>
<path d="M29.9053 0H44.8566C53.1102 0 59.8079 6.71918 59.8079 14.9992C59.8079 23.2792 53.1102 29.9983 44.8566 29.9983H29.9053V0Z" fill="#FF7262"/>
<path d="M55.4277 55.6066C61.2665 49.7491 61.2665 40.2522 55.4277 34.3948C49.5889 28.5373 40.1223 28.5373 34.2835 34.3948C28.4447 40.2522 28.4447 49.7491 34.2835 55.6066C40.1223 61.4641 49.5889 61.4641 55.4277 55.6066Z" fill="#1ABCFE"/>
</svg>
