<svg width="96" height="96" viewBox="0 0 96 96" fill="none" xmlns="http://www.w3.org/2000/svg">
<path d="M48 96C74.5097 96 96 74.5097 96 48C96 21.4903 74.5097 0 48 0C21.4903 0 0 21.4903 0 48C0 74.5097 21.4903 96 48 96Z" fill="#663399"/>
<path d="M21.2572 74.7429C14.0572 67.5429 10.2858 57.9429 10.2858 48.6858L47.6572 85.7143C38.0572 85.3715 28.4572 81.9429 21.2572 74.7429ZM56.2286 84.6858L11.3143 39.7715C15.0858 22.9715 30.1715 10.2858 48.0001 10.2858C60.6858 10.2858 71.6572 16.4572 78.5143 25.7143L73.3715 30.1715C67.5429 22.2858 58.2858 17.1429 48.0001 17.1429C34.6286 17.1429 23.3143 25.7143 18.8572 37.7143L58.2858 77.1429C68.2286 73.7143 75.7715 65.1429 78.1715 54.8572H61.7143V48.0001H85.7143C85.7143 65.8286 73.0286 80.9143 56.2286 84.6858Z" fill="white"/>
</svg>
