<svg width="90" height="82" viewBox="0 0 90 82" fill="none" xmlns="http://www.w3.org/2000/svg">
<path d="M19.5968 2.69843L44.9093 0L70.2218 2.69843L89.8186 29.2254L44.9093 81.9592L0 29.2254L19.5968 2.69843Z" fill="#FDB300"/>
<path d="M18.1905 29.2255L44.9094 81.9593L0 29.2255H18.1905Z" fill="#EA6C00"/>
<path d="M71.6281 29.2255L44.9092 81.9593L89.8186 29.2255H71.6281Z" fill="#EA6C00"/>
<path d="M18.1904 29.2255H71.628L44.9092 81.9593L18.1904 29.2255Z" fill="#FDAD00"/>
<path d="M44.9092 0L19.5966 2.6984L18.1904 29.2254L44.9092 0Z" fill="#FDD231"/>
<path d="M44.909 0L70.2217 2.6984L71.6279 29.2254L44.909 0Z" fill="#FDD231"/>
<path d="M89.8186 29.2254L70.2216 2.69836L71.628 29.2254H89.8186Z" fill="#FDAD00"/>
<path d="M0 29.2254L19.5967 2.69836L18.1905 29.2254H0Z" fill="#FDAD00"/>
<path d="M44.9092 0L18.1904 29.2254H71.628L44.9092 0Z" fill="#FEEEB7"/>
</svg>
