<svg width="3300" height="2050" viewBox="0 0 3300 2050" fill="none" xmlns="http://www.w3.org/2000/svg">
<g clip-path="url(#clip0)">
<rect width="3300" height="2050" rx="44" fill="black"/>
<g filter="url(#filter0_f)">
<circle cx="2347" cy="1000" r="2000" fill="url(#paint0_radial)"/>
</g>
<g filter="url(#filter1_f)">
<circle cx="4182" cy="1000" r="2000" fill="url(#paint1_radial)"/>
</g>
<g filter="url(#filter2_f)">
<circle cx="2182" cy="2497" r="2000" fill="url(#paint2_radial)"/>
</g>
<g filter="url(#filter3_f)">
<circle cx="2182" cy="2497" r="2000" fill="url(#paint3_radial)"/>
</g>
<g filter="url(#filter4_f)">
<circle cx="-257" cy="2206" r="2000" fill="url(#paint4_radial)"/>
</g>
<g filter="url(#filter5_f)">
<circle cx="1093" cy="61" r="2000" fill="url(#paint5_radial)"/>
</g>
<g filter="url(#filter6_f)">
<circle cx="655.219" cy="588.219" r="354.473" transform="rotate(-60 655.219 588.219)" fill="url(#paint6_radial)"/>
</g>
<g filter="url(#filter7_f)">
<circle cx="2032.02" cy="1377.02" r="586.391" transform="rotate(-60 2032.02 1377.02)" fill="url(#paint7_radial)"/>
</g>
<g filter="url(#filter8_bf)">
<g filter="url(#filter9_b)">
<rect x="500" y="300" width="2300" height="1400" rx="150" fill="url(#paint8_linear)"/>
<rect x="504.5" y="304.5" width="2291" height="1391" rx="145.5" stroke="url(#paint9_linear)" stroke-width="9"/>
</g>
</g>
<path d="M500 450C500 367.157 567.157 300 650 300H2650C2732.84 300 2800 367.157 2800 450V543H500V450Z" fill="#001D82" fill-opacity="0.06"/>
<path d="M881.028 409.736H890.634V437H894.332V409.736H903.938V406.455H881.028V409.736ZM912.689 423.219C912.689 419.222 915.239 416.955 918.714 416.955C922.025 416.955 924.024 419.043 924.024 422.682V437H927.544V422.443C927.544 416.552 924.412 413.793 919.729 413.793C916.119 413.793 914.061 415.299 912.987 417.67H912.689V406.455H909.169V437H912.689V423.219ZM943.588 437.477C948.242 437.477 951.642 435.151 952.716 431.69L949.316 430.736C948.421 433.122 946.348 434.315 943.588 434.315C939.457 434.315 936.608 431.646 936.444 426.739H953.074V425.247C953.074 416.716 948.003 413.793 943.23 413.793C937.026 413.793 932.909 418.685 932.909 425.724C932.909 432.764 936.966 437.477 943.588 437.477ZM936.444 423.696C936.683 420.131 939.203 416.955 943.23 416.955C947.049 416.955 949.495 419.818 949.495 423.696H936.444ZM970.718 437H974.417V425.068H981.099C981.368 425.068 981.621 425.068 981.875 425.053L988.318 437H992.613L985.708 424.382C989.6 423.055 991.42 419.878 991.42 415.821C991.42 410.422 988.199 406.455 981.039 406.455H970.718V437ZM974.417 421.727V409.736H980.92C985.872 409.736 987.781 412.152 987.781 415.821C987.781 419.49 985.872 421.727 980.98 421.727H974.417ZM1006.47 437.477C1011.12 437.477 1014.52 435.151 1015.59 431.69L1012.19 430.736C1011.3 433.122 1009.22 434.315 1006.47 434.315C1002.33 434.315 999.485 431.646 999.321 426.739H1015.95V425.247C1015.95 416.716 1010.88 413.793 1006.11 413.793C999.903 413.793 995.786 418.685 995.786 425.724C995.786 432.764 999.843 437.477 1006.47 437.477ZM999.321 423.696C999.56 420.131 1002.08 416.955 1006.11 416.955C1009.93 416.955 1012.37 419.818 1012.37 423.696H999.321ZM1031.51 414.091H1026.38V411.764C1026.38 409.497 1027.33 408.304 1029.66 408.304C1030.67 408.304 1031.27 408.543 1031.63 408.662L1032.64 405.619C1032.1 405.381 1031.03 405.023 1029.3 405.023C1026.02 405.023 1022.86 406.991 1022.86 410.929V414.091H1019.16V417.074H1022.86V437H1026.38V417.074H1031.51V414.091ZM1042.53 437.537C1046.52 437.537 1048.61 435.389 1049.33 433.898H1049.51V437H1053.03V421.906C1053.03 414.628 1047.48 413.793 1044.55 413.793C1041.09 413.793 1037.16 414.986 1035.37 419.162L1038.71 420.355C1039.48 418.685 1041.32 416.895 1044.67 416.895C1047.91 416.895 1049.51 418.61 1049.51 421.548V421.668C1049.51 423.368 1047.78 423.219 1043.6 423.756C1039.35 424.308 1034.71 425.247 1034.71 430.497C1034.71 434.972 1038.17 437.537 1042.53 437.537ZM1043.06 434.375C1040.26 434.375 1038.23 433.122 1038.23 430.676C1038.23 427.991 1040.68 427.156 1043.42 426.798C1044.91 426.619 1048.91 426.202 1049.51 425.486V428.707C1049.51 431.571 1047.24 434.375 1043.06 434.375ZM1068.76 437.477C1073.83 437.477 1077.17 434.375 1077.77 430.318H1074.25C1073.59 432.824 1071.5 434.315 1068.76 434.315C1064.58 434.315 1061.9 430.855 1061.9 425.545C1061.9 420.355 1064.64 416.955 1068.76 416.955C1071.86 416.955 1073.71 418.864 1074.25 420.952H1077.77C1077.17 416.656 1073.53 413.793 1068.7 413.793C1062.49 413.793 1058.38 418.685 1058.38 425.665C1058.38 432.526 1062.31 437.477 1068.76 437.477ZM1092.87 414.091H1087.98V408.602H1084.46V414.091H1081V417.074H1084.46V431.392C1084.46 435.389 1087.68 437.298 1090.67 437.298C1091.98 437.298 1092.81 437.06 1093.29 436.881L1092.58 433.719C1092.28 433.778 1091.8 433.898 1091.02 433.898C1089.47 433.898 1087.98 433.42 1087.98 430.438V417.074H1092.87V414.091ZM1107.23 437.477C1113.43 437.477 1117.61 432.764 1117.61 425.665C1117.61 418.506 1113.43 413.793 1107.23 413.793C1101.03 413.793 1096.85 418.506 1096.85 425.665C1096.85 432.764 1101.03 437.477 1107.23 437.477ZM1107.23 434.315C1102.52 434.315 1100.37 430.259 1100.37 425.665C1100.37 421.071 1102.52 416.955 1107.23 416.955C1111.94 416.955 1114.09 421.071 1114.09 425.665C1114.09 430.259 1111.94 434.315 1107.23 434.315ZM1122.98 437H1126.5V422.503C1126.5 419.401 1128.95 417.134 1132.29 417.134C1133.23 417.134 1134.2 417.312 1134.44 417.372V413.793C1134.04 413.763 1133.11 413.733 1132.59 413.733C1129.84 413.733 1127.46 415.284 1126.62 417.551H1126.38V414.091H1122.98V437ZM1150.9 437H1154.6V425.844H1161.28C1168.4 425.844 1171.6 421.518 1171.6 416.119C1171.6 410.72 1168.4 406.455 1161.22 406.455H1150.9V437ZM1154.6 422.562V409.736H1161.1C1166.07 409.736 1167.96 412.45 1167.96 416.119C1167.96 419.788 1166.07 422.562 1161.16 422.562H1154.6ZM1177.08 437H1180.6V422.503C1180.6 419.401 1183.05 417.134 1186.39 417.134C1187.33 417.134 1188.3 417.312 1188.54 417.372V413.793C1188.13 413.763 1187.21 413.733 1186.69 413.733C1183.94 413.733 1181.56 415.284 1180.72 417.551H1180.48V414.091H1177.08V437ZM1201.32 437.477C1207.52 437.477 1211.7 432.764 1211.7 425.665C1211.7 418.506 1207.52 413.793 1201.32 413.793C1195.11 413.793 1190.94 418.506 1190.94 425.665C1190.94 432.764 1195.11 437.477 1201.32 437.477ZM1201.32 434.315C1196.61 434.315 1194.46 430.259 1194.46 425.665C1194.46 421.071 1196.61 416.955 1201.32 416.955C1206.03 416.955 1208.18 421.071 1208.18 425.665C1208.18 430.259 1206.03 434.315 1201.32 434.315ZM1217.07 414.091V438.67C1217.07 440.997 1216.12 442.31 1213.97 442.31H1213.31V445.591H1214.03C1218.45 445.591 1220.59 442.906 1220.59 438.67V414.091H1217.07ZM1218.8 410.273C1220.18 410.273 1221.31 409.199 1221.31 407.886C1221.31 406.574 1220.18 405.5 1218.8 405.5C1217.43 405.5 1216.3 406.574 1216.3 407.886C1216.3 409.199 1217.43 410.273 1218.8 410.273ZM1236.65 437.477C1241.3 437.477 1244.7 435.151 1245.77 431.69L1242.37 430.736C1241.48 433.122 1239.4 434.315 1236.65 434.315C1232.51 434.315 1229.66 431.646 1229.5 426.739H1246.13V425.247C1246.13 416.716 1241.06 413.793 1236.29 413.793C1230.08 413.793 1225.97 418.685 1225.97 425.724C1225.97 432.764 1230.02 437.477 1236.65 437.477ZM1229.5 423.696C1229.74 420.131 1232.26 416.955 1236.29 416.955C1240.11 416.955 1242.55 419.818 1242.55 423.696H1229.5ZM1260.79 437.477C1265.86 437.477 1269.2 434.375 1269.8 430.318H1266.28C1265.62 432.824 1263.54 434.315 1260.79 434.315C1256.62 434.315 1253.93 430.855 1253.93 425.545C1253.93 420.355 1256.68 416.955 1260.79 416.955C1263.89 416.955 1265.74 418.864 1266.28 420.952H1269.8C1269.2 416.656 1265.56 413.793 1260.73 413.793C1254.53 413.793 1250.41 418.685 1250.41 425.665C1250.41 432.526 1254.35 437.477 1260.79 437.477ZM1284.91 414.091H1280.02V408.602H1276.5V414.091H1273.04V417.074H1276.5V431.392C1276.5 435.389 1279.72 437.298 1282.7 437.298C1284.01 437.298 1284.85 437.06 1285.33 436.881L1284.61 433.719C1284.31 433.778 1283.84 433.898 1283.06 433.898C1281.51 433.898 1280.02 433.42 1280.02 430.438V417.074H1284.91V414.091ZM1319.2 414.091H1322.78C1322.61 409.482 1318.36 406.037 1312.46 406.037C1306.61 406.037 1302.02 409.438 1302.02 414.568C1302.02 418.685 1305 421.131 1309.77 422.503L1313.53 423.577C1316.75 424.472 1319.62 425.605 1319.62 428.648C1319.62 431.989 1316.39 434.196 1312.16 434.196C1308.52 434.196 1305.3 432.585 1305 429.125H1301.18C1301.54 434.136 1305.6 437.537 1312.16 437.537C1319.2 437.537 1323.2 433.659 1323.2 428.707C1323.2 422.98 1317.77 421.131 1314.6 420.295L1311.5 419.46C1309.24 418.864 1305.6 417.67 1305.6 414.389C1305.6 411.466 1308.28 409.318 1312.34 409.318C1316.04 409.318 1318.84 411.078 1319.2 414.091ZM1338.76 414.091H1333.87V408.602H1330.35V414.091H1326.89V417.074H1330.35V431.392C1330.35 435.389 1333.57 437.298 1336.56 437.298C1337.87 437.298 1338.7 437.06 1339.18 436.881L1338.46 433.719C1338.17 433.778 1337.69 433.898 1336.91 433.898C1335.36 433.898 1333.87 433.42 1333.87 430.438V417.074H1338.76V414.091ZM1346.32 445.591C1349.5 445.591 1351.74 443.906 1353.07 440.341L1362.82 414.151L1358.97 414.091L1352.65 432.347H1352.41L1346.09 414.091H1342.27L1350.74 437.119L1350.08 438.909C1348.8 442.399 1347.22 442.727 1344.65 442.071L1343.76 445.173C1344.12 445.352 1345.13 445.591 1346.32 445.591ZM1371 406.455H1367.48V437H1371V406.455ZM1387.05 437.477C1391.7 437.477 1395.1 435.151 1396.18 431.69L1392.78 430.736C1391.88 433.122 1389.81 434.315 1387.05 434.315C1382.92 434.315 1380.07 431.646 1379.91 426.739H1396.54V425.247C1396.54 416.716 1391.46 413.793 1386.69 413.793C1380.49 413.793 1376.37 418.685 1376.37 425.724C1376.37 432.764 1380.43 437.477 1387.05 437.477ZM1379.91 423.696C1380.14 420.131 1382.66 416.955 1386.69 416.955C1390.51 416.955 1392.96 419.818 1392.96 423.696H1379.91ZM1435.06 416H1438.88C1437.74 410.094 1432.79 406.037 1426.35 406.037C1418.52 406.037 1412.99 412.062 1412.99 421.727C1412.99 431.392 1418.47 437.418 1426.59 437.418C1433.87 437.418 1439.06 432.57 1439.06 425.009V421.727H1427.42V425.009H1435.48C1435.37 430.497 1431.76 433.957 1426.59 433.957C1420.92 433.957 1416.57 429.662 1416.57 421.727C1416.57 413.793 1420.92 409.497 1426.35 409.497C1430.76 409.497 1433.76 411.988 1435.06 416ZM1459.35 427.634C1459.35 431.929 1456.07 433.898 1453.45 433.898C1450.52 433.898 1448.43 431.75 1448.43 428.409V414.091H1444.91V428.648C1444.91 434.494 1448.02 437.298 1452.31 437.298C1455.77 437.298 1458.04 435.449 1459.11 433.122H1459.35V437H1462.87V414.091H1459.35V427.634ZM1469.32 437H1472.84V414.091H1469.32V437ZM1471.11 410.273C1472.48 410.273 1473.61 409.199 1473.61 407.886C1473.61 406.574 1472.48 405.5 1471.11 405.5C1469.74 405.5 1468.6 406.574 1468.6 407.886C1468.6 409.199 1469.74 410.273 1471.11 410.273ZM1487.94 437.477C1492.35 437.477 1493.84 434.733 1494.62 433.48H1495.04V437H1498.44V406.455H1494.92V417.73H1494.62C1493.84 416.537 1492.47 413.793 1488 413.793C1482.21 413.793 1478.21 418.386 1478.21 425.605C1478.21 432.884 1482.21 437.477 1487.94 437.477ZM1488.41 434.315C1484 434.315 1481.73 430.438 1481.73 425.545C1481.73 420.713 1483.94 416.955 1488.41 416.955C1492.71 416.955 1494.98 420.415 1494.98 425.545C1494.98 430.736 1492.65 434.315 1488.41 434.315ZM1514.98 437.477C1519.63 437.477 1523.03 435.151 1524.1 431.69L1520.7 430.736C1519.81 433.122 1517.74 434.315 1514.98 434.315C1510.85 434.315 1508 431.646 1507.83 426.739H1524.46V425.247C1524.46 416.716 1519.39 413.793 1514.62 413.793C1508.41 413.793 1504.3 418.685 1504.3 425.724C1504.3 432.764 1508.35 437.477 1514.98 437.477ZM1507.83 423.696C1508.07 420.131 1510.59 416.955 1514.62 416.955C1518.44 416.955 1520.88 419.818 1520.88 423.696H1507.83Z" fill="#375481" fill-opacity="0.65"/>
<path d="M815 421.5C815 453.809 788.809 480 756.5 480C724.191 480 698 453.809 698 421.5C698 389.191 724.191 363 756.5 363C788.809 363 815 389.191 815 421.5ZM717.9 421.5C717.9 442.818 735.182 460.1 756.5 460.1C777.818 460.1 795.1 442.818 795.1 421.5C795.1 400.182 777.818 382.9 756.5 382.9C735.182 382.9 717.9 400.182 717.9 421.5Z" fill="url(#paint10_angular)" fill-opacity="0.4"/>
<rect x="2512" y="668" width="90" height="90" rx="45" fill="#002159" fill-opacity="0.33"/>
<rect x="2512" y="1010" width="90" height="90" rx="45" fill="#102A43" fill-opacity="0.33"/>
<rect x="2398" y="668" width="90" height="90" rx="45" fill="#01337D" fill-opacity="0.33"/>
<rect x="2398" y="1010" width="90" height="90" rx="45" fill="#243B53" fill-opacity="0.33"/>
<rect x="2284" y="668" width="90" height="90" rx="45" fill="#03449E" fill-opacity="0.33"/>
<rect x="2284" y="1010" width="90" height="90" rx="45" fill="#334E68" fill-opacity="0.33"/>
<rect x="2170" y="668" width="90" height="90" rx="45" fill="#0552B5" fill-opacity="0.33"/>
<rect x="2170" y="1010" width="90" height="90" rx="45" fill="#486581" fill-opacity="0.5"/>
<rect x="2056" y="668" width="90" height="90" rx="45" fill="#0967D2" fill-opacity="0.33"/>
<rect x="2056" y="1010" width="90" height="90" rx="45" fill="#627D98" fill-opacity="0.33"/>
<rect x="1942" y="668" width="90" height="90" rx="45" fill="#2186EB" fill-opacity="0.33"/>
<rect x="1942" y="1010" width="90" height="90" rx="45" fill="#829AB1" fill-opacity="0.33"/>
<rect x="1828" y="668" width="90" height="90" rx="45" fill="#47A3F3" fill-opacity="0.33"/>
<rect x="1828" y="1010" width="90" height="90" rx="45" fill="#9FB3C8" fill-opacity="0.33"/>
<rect x="1714" y="668" width="90" height="90" rx="45" fill="#7CC4FA" fill-opacity="0.33"/>
<rect x="1714" y="1010" width="90" height="90" rx="45" fill="#BCCCDC" fill-opacity="0.33"/>
<rect x="1600" y="668" width="90" height="90" rx="45" fill="#BAE3FF" fill-opacity="0.33"/>
<rect x="1600" y="1010" width="90" height="90" rx="45" fill="#D9E2EC" fill-opacity="0.33"/>
<rect x="1486" y="668" width="90" height="90" rx="45" fill="#E6F6FF" fill-opacity="0.33"/>
<rect x="1486" y="1010" width="90" height="90" rx="45" fill="#F0F4F8" fill-opacity="0.33"/>
<rect opacity="0.2" x="2512" y="839" width="90" height="90" rx="45" fill="#44056E" fill-opacity="0.7"/>
<rect opacity="0.2" x="2398" y="839" width="90" height="90" rx="45" fill="#580A94" fill-opacity="0.33"/>
<rect opacity="0.2" x="2284" y="839" width="90" height="90" rx="45" fill="#690CB0" fill-opacity="0.7"/>
<rect opacity="0.2" x="2170" y="839" width="90" height="90" rx="45" fill="#7A0ECC" fill-opacity="0.7"/>
<rect opacity="0.2" x="2056" y="839" width="90" height="90" rx="45" fill="#8719ED" fill-opacity="0.7"/>
<rect opacity="0.2" x="1942" y="839" width="90" height="90" rx="45" fill="#9446ED" fill-opacity="0.7"/>
<rect opacity="0.2" x="1828" y="839" width="90" height="90" rx="45" fill="#A368FC" fill-opacity="0.7"/>
<rect opacity="0.2" x="1714" y="839" width="90" height="90" rx="45" fill="#B990FF" fill-opacity="0.7"/>
<rect opacity="0.2" x="1600" y="839" width="90" height="90" rx="45" fill="#DAC4FF" fill-opacity="0.7"/>
<rect opacity="0.2" x="1486" y="839" width="90" height="90" rx="45" fill="#E6F6FF" fill-opacity="0.7"/>
<path d="M1526.75 1349.18H1510.15V1531H1526.75V1349.18ZM1587.61 1445.77C1587.61 1421.98 1603.23 1407.33 1624.72 1407.33C1645.67 1407.33 1659.16 1421.36 1659.16 1443.64V1531H1674.96V1442.67C1674.96 1410.35 1656.23 1392.86 1628.71 1392.86C1608.74 1392.86 1594.98 1402.09 1588.58 1416.03H1587.16V1394.64H1571.8V1531H1587.61V1445.77ZM1770.29 1394.64H1741.44V1361.97H1725.55V1394.64H1705.22V1408.4H1725.55V1499.13C1725.55 1521.41 1743.12 1533.04 1760.61 1533.04C1767.18 1533.04 1771.62 1531.8 1774.64 1530.64L1771.27 1516.35C1769.05 1516.97 1766.21 1517.59 1762.03 1517.59C1751.29 1517.59 1741.44 1512.53 1741.44 1495.4V1408.4H1770.29V1394.64ZM1859.85 1533.84C1887.19 1533.84 1905.57 1519.01 1911.78 1501.88L1896.78 1497C1891.54 1509.25 1879.2 1519.37 1859.85 1519.37C1831.97 1519.37 1814.3 1499.04 1813.59 1467.52H1915.15V1459.71C1915.15 1414.17 1887.01 1392.77 1857.45 1392.77C1822.12 1392.77 1797.7 1422.34 1797.7 1463.62C1797.7 1504.99 1821.67 1533.84 1859.85 1533.84ZM1813.68 1453.59C1815.37 1428.19 1832.5 1407.15 1857.45 1407.15C1881.86 1407.15 1899 1427.31 1899 1453.59H1813.68ZM1949.98 1531H1965.78V1442.93C1965.78 1422.69 1981.32 1408.04 2002.62 1408.04C2006.8 1408.04 2010.7 1408.75 2012.12 1408.93V1392.86C2009.99 1392.77 2006.35 1392.59 2003.78 1392.59C1986.64 1392.59 1972 1401.83 1966.49 1415.59H1965.34V1394.64H1949.98V1531ZM2246.74 1531L2260.74 1491.56H2315.71L2329.71 1531H2342.24L2294.62 1400.09H2281.83L2234.21 1531H2246.74ZM2264.58 1480.82L2287.78 1415.62H2288.67L2311.88 1480.82H2264.58ZM2389.73 1533.24C2406.1 1533.24 2416.07 1524.16 2420.16 1515.47H2420.86V1531H2432.24V1464.33C2432.24 1438 2412.42 1431.48 2397.4 1431.48C2382.38 1431.48 2366.91 1437.42 2360.26 1453.46L2371.07 1457.36C2374.65 1448.93 2383.53 1441.7 2397.72 1441.7C2412.62 1441.7 2420.86 1449.88 2420.86 1463.31V1465.61C2420.86 1473.02 2411.66 1473.15 2395.17 1475.2C2372.99 1477.95 2357.45 1484.15 2357.45 1503.58C2357.45 1522.5 2371.9 1533.24 2389.73 1533.24ZM2391.27 1522.82C2378.42 1522.82 2368.83 1515.98 2368.83 1504.09C2368.83 1492.2 2378.55 1487.21 2395.17 1485.17C2403.22 1484.21 2417.54 1482.42 2420.86 1479.16V1493.35C2420.86 1509.46 2409.42 1522.82 2391.27 1522.82Z" fill="#365582" fill-opacity="0.67"/>
<path d="M702.227 730H706.455V717.25H714.091C722.222 717.25 725.886 712.307 725.886 706.136C725.886 699.966 722.222 695.091 714.023 695.091H702.227V730ZM706.455 713.5V698.841H713.886C719.562 698.841 721.727 701.943 721.727 706.136C721.727 710.33 719.562 713.5 713.955 713.5H706.455ZM732.151 730H736.173V713.432C736.173 709.886 738.969 707.295 742.787 707.295C743.861 707.295 744.969 707.5 745.241 707.568V703.477C744.781 703.443 743.724 703.409 743.128 703.409C739.991 703.409 737.264 705.182 736.31 707.773H736.037V703.818H732.151V730ZM750.01 730H754.033V703.818H750.01V730ZM752.055 699.455C753.624 699.455 754.919 698.227 754.919 696.727C754.919 695.227 753.624 694 752.055 694C750.487 694 749.192 695.227 749.192 696.727C749.192 698.227 750.487 699.455 752.055 699.455ZM761.401 730H765.423V713.636C765.423 709.801 768.219 707.091 771.355 707.091C774.406 707.091 776.537 709.085 776.537 712.068V730H780.628V712.955C780.628 709.58 782.741 707.091 786.423 707.091C789.287 707.091 791.741 708.608 791.741 712.477V730H795.764V712.477C795.764 706.324 792.457 703.477 787.787 703.477C784.037 703.477 781.293 705.199 779.946 707.909H779.673C778.378 705.114 776.094 703.477 772.651 703.477C769.241 703.477 766.719 705.114 765.628 707.909H765.287V703.818H761.401V730ZM810.824 730.614C815.392 730.614 817.778 728.159 818.597 726.455H818.801V730H822.824V712.75C822.824 704.432 816.483 703.477 813.142 703.477C809.188 703.477 804.688 704.841 802.642 709.614L806.46 710.977C807.347 709.068 809.443 707.023 813.278 707.023C816.977 707.023 818.801 708.983 818.801 712.341V712.477C818.801 714.42 816.824 714.25 812.051 714.864C807.193 715.494 801.892 716.568 801.892 722.568C801.892 727.682 805.847 730.614 810.824 730.614ZM811.438 727C808.233 727 805.915 725.568 805.915 722.773C805.915 719.705 808.71 718.75 811.847 718.341C813.551 718.136 818.119 717.659 818.801 716.841V720.523C818.801 723.795 816.21 727 811.438 727ZM830.166 730H834.189V713.432C834.189 709.886 836.984 707.295 840.803 707.295C841.876 707.295 842.984 707.5 843.257 707.568V703.477C842.797 703.443 841.74 703.409 841.143 703.409C838.007 703.409 835.28 705.182 834.325 707.773H834.053V703.818H830.166V730ZM851.413 739.818C855.044 739.818 857.601 737.892 859.118 733.818L870.266 703.886L865.868 703.818L858.641 724.682H858.368L851.141 703.818H846.777L856.459 730.136L855.709 732.182C854.243 736.17 852.436 736.545 849.504 735.795L848.482 739.341C848.891 739.545 850.05 739.818 851.413 739.818Z" fill="#4F6E99"/>
<path d="M721.318 874.818H725.409C725.222 869.551 720.364 865.614 713.614 865.614C706.932 865.614 701.682 869.5 701.682 875.364C701.682 880.068 705.091 882.864 710.545 884.432L714.841 885.659C718.523 886.682 721.795 887.977 721.795 891.455C721.795 895.273 718.114 897.795 713.273 897.795C709.114 897.795 705.432 895.955 705.091 892H700.727C701.136 897.727 705.773 901.614 713.273 901.614C721.318 901.614 725.886 897.182 725.886 891.523C725.886 884.977 719.682 882.864 716.068 881.909L712.523 880.955C709.932 880.273 705.773 878.909 705.773 875.159C705.773 871.818 708.841 869.364 713.477 869.364C717.705 869.364 720.909 871.375 721.318 874.818ZM743.268 901.545C748.587 901.545 752.473 898.886 753.7 894.932L749.814 893.841C748.791 896.568 746.422 897.932 743.268 897.932C738.547 897.932 735.291 894.881 735.104 889.273H754.109V887.568C754.109 877.818 748.314 874.477 742.859 874.477C735.768 874.477 731.064 880.068 731.064 888.114C731.064 896.159 735.7 901.545 743.268 901.545ZM735.104 885.795C735.376 881.722 738.257 878.091 742.859 878.091C747.223 878.091 750.018 881.364 750.018 885.795H735.104ZM770.865 901.545C776.661 901.545 780.479 898 781.161 893.364H777.138C776.388 896.227 774.001 897.932 770.865 897.932C766.092 897.932 763.024 893.977 763.024 887.909C763.024 881.977 766.161 878.091 770.865 878.091C774.411 878.091 776.524 880.273 777.138 882.659H781.161C780.479 877.75 776.32 874.477 770.797 874.477C763.706 874.477 759.001 880.068 759.001 888.045C759.001 895.886 763.501 901.545 770.865 901.545ZM797.678 901.545C804.768 901.545 809.541 896.159 809.541 888.045C809.541 879.864 804.768 874.477 797.678 874.477C790.587 874.477 785.814 879.864 785.814 888.045C785.814 896.159 790.587 901.545 797.678 901.545ZM797.678 897.932C792.291 897.932 789.837 893.295 789.837 888.045C789.837 882.795 792.291 878.091 797.678 878.091C803.064 878.091 805.518 882.795 805.518 888.045C805.518 893.295 803.064 897.932 797.678 897.932ZM819.705 885.25C819.705 880.682 822.534 878.091 826.386 878.091C830.119 878.091 832.386 880.528 832.386 884.636V901H836.409V884.364C836.409 877.682 832.847 874.477 827.545 874.477C823.591 874.477 821.136 876.25 819.909 878.909H819.568V874.818H815.682V901H819.705V885.25ZM853.646 901.545C858.692 901.545 860.396 898.409 861.283 896.977H861.76V901H865.646V866.091H861.624V878.977H861.283C860.396 877.614 858.828 874.477 853.714 874.477C847.101 874.477 842.533 879.727 842.533 887.977C842.533 896.295 847.101 901.545 853.646 901.545ZM854.192 897.932C849.146 897.932 846.555 893.5 846.555 887.909C846.555 882.386 849.078 878.091 854.192 878.091C859.101 878.091 861.692 882.045 861.692 887.909C861.692 893.841 859.033 897.932 854.192 897.932ZM881.277 901.614C885.845 901.614 888.232 899.159 889.05 897.455H889.254V901H893.277V883.75C893.277 875.432 886.936 874.477 883.595 874.477C879.641 874.477 875.141 875.841 873.095 880.614L876.913 881.977C877.8 880.068 879.896 878.023 883.732 878.023C887.43 878.023 889.254 879.983 889.254 883.341V883.477C889.254 885.42 887.277 885.25 882.504 885.864C877.646 886.494 872.345 887.568 872.345 893.568C872.345 898.682 876.3 901.614 881.277 901.614ZM881.891 898C878.686 898 876.368 896.568 876.368 893.773C876.368 890.705 879.163 889.75 882.3 889.341C884.004 889.136 888.572 888.659 889.254 887.841V891.523C889.254 894.795 886.663 898 881.891 898ZM900.619 901H904.642V884.432C904.642 880.886 907.438 878.295 911.256 878.295C912.33 878.295 913.438 878.5 913.71 878.568V874.477C913.25 874.443 912.193 874.409 911.597 874.409C908.46 874.409 905.733 876.182 904.778 878.773H904.506V874.818H900.619V901ZM921.866 910.818C925.497 910.818 928.054 908.892 929.571 904.818L940.719 874.886L936.321 874.818L929.094 895.682H928.821L921.594 874.818H917.23L926.912 901.136L926.162 903.182C924.696 907.17 922.889 907.545 919.957 906.795L918.935 910.341C919.344 910.545 920.503 910.818 921.866 910.818Z" fill="#4F6E99"/>
<path d="M726.091 1048H730.455C729.159 1041.25 723.5 1036.61 716.136 1036.61C707.188 1036.61 700.864 1043.5 700.864 1054.55C700.864 1065.59 707.136 1072.48 716.409 1072.48C724.727 1072.48 730.659 1066.94 730.659 1058.3V1054.55H717.364V1058.3H726.568C726.449 1064.57 722.324 1068.52 716.409 1068.52C709.932 1068.52 704.955 1063.61 704.955 1054.55C704.955 1045.48 709.932 1040.57 716.136 1040.57C721.182 1040.57 724.608 1043.41 726.091 1048ZM737.354 1072H741.376V1055.43C741.376 1051.89 744.172 1049.3 747.99 1049.3C749.064 1049.3 750.172 1049.5 750.445 1049.57V1045.48C749.984 1045.44 748.928 1045.41 748.331 1045.41C745.195 1045.41 742.467 1047.18 741.513 1049.77H741.24V1045.82H737.354V1072ZM762.918 1072.61C767.486 1072.61 769.872 1070.16 770.69 1068.45H770.895V1072H774.918V1054.75C774.918 1046.43 768.577 1045.48 765.236 1045.48C761.281 1045.48 756.781 1046.84 754.736 1051.61L758.554 1052.98C759.44 1051.07 761.537 1049.02 765.372 1049.02C769.071 1049.02 770.895 1050.98 770.895 1054.34V1054.48C770.895 1056.42 768.918 1056.25 764.145 1056.86C759.287 1057.49 753.986 1058.57 753.986 1064.57C753.986 1069.68 757.94 1072.61 762.918 1072.61ZM763.531 1069C760.327 1069 758.009 1067.57 758.009 1064.77C758.009 1061.7 760.804 1060.75 763.94 1060.34C765.645 1060.14 770.213 1059.66 770.895 1058.84V1062.52C770.895 1065.8 768.304 1069 763.531 1069ZM783.913 1081.82C787.544 1081.82 790.101 1079.89 791.618 1075.82L802.766 1045.89L798.368 1045.82L791.141 1066.68H790.868L783.641 1045.82H779.277L788.959 1072.14L788.209 1074.18C786.743 1078.17 784.936 1078.55 782.004 1077.8L780.982 1081.34C781.391 1081.55 782.55 1081.82 783.913 1081.82Z" fill="#4F6E99"/>
<path d="M700.318 1425.84H711.295V1457H715.523V1425.84H726.5V1422.09H700.318V1425.84ZM732.07 1466.82C735.7 1466.82 738.257 1464.89 739.774 1460.82L750.922 1430.89L746.524 1430.82L739.297 1451.68H739.024L731.797 1430.82H727.433L737.115 1457.14L736.365 1459.18C734.899 1463.17 733.092 1463.55 730.161 1462.8L729.138 1466.34C729.547 1466.55 730.706 1466.82 732.07 1466.82ZM756.244 1466.82H760.267V1452.98H760.608C761.494 1454.41 763.199 1457.55 768.244 1457.55C774.79 1457.55 779.358 1452.3 779.358 1443.98C779.358 1435.73 774.79 1430.48 768.176 1430.48C763.062 1430.48 761.494 1433.61 760.608 1434.98H760.131V1430.82H756.244V1466.82ZM760.199 1443.91C760.199 1438.05 762.79 1434.09 767.699 1434.09C772.812 1434.09 775.335 1438.39 775.335 1443.91C775.335 1449.5 772.744 1453.93 767.699 1453.93C762.858 1453.93 760.199 1449.84 760.199 1443.91ZM796.131 1457.55C803.222 1457.55 807.994 1452.16 807.994 1444.05C807.994 1435.86 803.222 1430.48 796.131 1430.48C789.04 1430.48 784.267 1435.86 784.267 1444.05C784.267 1452.16 789.04 1457.55 796.131 1457.55ZM796.131 1453.93C790.744 1453.93 788.29 1449.3 788.29 1444.05C788.29 1438.8 790.744 1434.09 796.131 1434.09C801.517 1434.09 803.972 1438.8 803.972 1444.05C803.972 1449.3 801.517 1453.93 796.131 1453.93ZM824.703 1467.36C830.976 1467.36 836.021 1464.5 836.021 1457.75V1430.82H832.135V1434.98H831.726C830.839 1433.61 829.203 1430.48 824.089 1430.48C817.476 1430.48 812.908 1435.73 812.908 1443.77C812.908 1451.95 817.68 1456.59 824.021 1456.59C829.135 1456.59 830.771 1453.59 831.658 1452.16H831.999V1457.48C831.999 1461.84 828.93 1463.82 824.703 1463.82C819.947 1463.82 818.277 1461.31 817.203 1459.86L813.999 1462.11C815.635 1464.86 818.857 1467.36 824.703 1467.36ZM824.567 1452.98C819.521 1452.98 816.93 1449.16 816.93 1443.7C816.93 1438.39 819.453 1434.09 824.567 1434.09C829.476 1434.09 832.067 1438.05 832.067 1443.7C832.067 1449.5 829.408 1452.98 824.567 1452.98ZM843.385 1457H847.408V1440.43C847.408 1436.89 850.203 1434.3 854.021 1434.3C855.095 1434.3 856.203 1434.5 856.476 1434.57V1430.48C856.016 1430.44 854.959 1430.41 854.362 1430.41C851.226 1430.41 848.499 1432.18 847.544 1434.77H847.271V1430.82H843.385V1457ZM868.949 1457.61C873.517 1457.61 875.903 1455.16 876.722 1453.45H876.926V1457H880.949V1439.75C880.949 1431.43 874.608 1430.48 871.267 1430.48C867.312 1430.48 862.812 1431.84 860.767 1436.61L864.585 1437.98C865.472 1436.07 867.568 1434.02 871.403 1434.02C875.102 1434.02 876.926 1435.98 876.926 1439.34V1439.48C876.926 1441.42 874.949 1441.25 870.176 1441.86C865.318 1442.49 860.017 1443.57 860.017 1449.57C860.017 1454.68 863.972 1457.61 868.949 1457.61ZM869.562 1454C866.358 1454 864.04 1452.57 864.04 1449.77C864.04 1446.7 866.835 1445.75 869.972 1445.34C871.676 1445.14 876.244 1444.66 876.926 1443.84V1447.52C876.926 1450.8 874.335 1454 869.562 1454ZM888.291 1466.82H892.314V1452.98H892.655C893.541 1454.41 895.246 1457.55 900.291 1457.55C906.837 1457.55 911.405 1452.3 911.405 1443.98C911.405 1435.73 906.837 1430.48 900.223 1430.48C895.109 1430.48 893.541 1433.61 892.655 1434.98H892.178V1430.82H888.291V1466.82ZM892.246 1443.91C892.246 1438.05 894.837 1434.09 899.746 1434.09C904.859 1434.09 907.382 1438.39 907.382 1443.91C907.382 1449.5 904.791 1453.93 899.746 1453.93C894.905 1453.93 892.246 1449.84 892.246 1443.91ZM921.564 1441.25C921.564 1436.68 924.479 1434.09 928.45 1434.09C932.234 1434.09 934.518 1436.48 934.518 1440.64V1457H938.541V1440.36C938.541 1433.63 934.962 1430.48 929.609 1430.48C925.484 1430.48 923.132 1432.2 921.905 1434.91H921.564V1422.09H917.541V1457H921.564V1441.25ZM947.554 1466.82C951.185 1466.82 953.741 1464.89 955.259 1460.82L966.406 1430.89L962.009 1430.82L954.781 1451.68H954.509L947.281 1430.82H942.918L952.599 1457.14L951.849 1459.18C950.384 1463.17 948.577 1463.55 945.645 1462.8L944.622 1466.34C945.031 1466.55 946.19 1466.82 947.554 1466.82Z" fill="#4F6E99"/>
<rect x="698" y="1254" width="1904" height="2" fill="#556F91"/>
</g>
<defs>
<filter id="filter0_f" x="97" y="-1250" width="4500" height="4500" filterUnits="userSpaceOnUse" color-interpolation-filters="sRGB">
<feFlood flood-opacity="0" result="BackgroundImageFix"/>
<feBlend mode="normal" in="SourceGraphic" in2="BackgroundImageFix" result="shape"/>
<feGaussianBlur stdDeviation="125" result="effect1_foregroundBlur"/>
</filter>
<filter id="filter1_f" x="1932" y="-1250" width="4500" height="4500" filterUnits="userSpaceOnUse" color-interpolation-filters="sRGB">
<feFlood flood-opacity="0" result="BackgroundImageFix"/>
<feBlend mode="normal" in="SourceGraphic" in2="BackgroundImageFix" result="shape"/>
<feGaussianBlur stdDeviation="125" result="effect1_foregroundBlur"/>
</filter>
<filter id="filter2_f" x="-68" y="247" width="4500" height="4500" filterUnits="userSpaceOnUse" color-interpolation-filters="sRGB">
<feFlood flood-opacity="0" result="BackgroundImageFix"/>
<feBlend mode="normal" in="SourceGraphic" in2="BackgroundImageFix" result="shape"/>
<feGaussianBlur stdDeviation="125" result="effect1_foregroundBlur"/>
</filter>
<filter id="filter3_f" x="-68" y="247" width="4500" height="4500" filterUnits="userSpaceOnUse" color-interpolation-filters="sRGB">
<feFlood flood-opacity="0" result="BackgroundImageFix"/>
<feBlend mode="normal" in="SourceGraphic" in2="BackgroundImageFix" result="shape"/>
<feGaussianBlur stdDeviation="125" result="effect1_foregroundBlur"/>
</filter>
<filter id="filter4_f" x="-2507" y="-44" width="4500" height="4500" filterUnits="userSpaceOnUse" color-interpolation-filters="sRGB">
<feFlood flood-opacity="0" result="BackgroundImageFix"/>
<feBlend mode="normal" in="SourceGraphic" in2="BackgroundImageFix" result="shape"/>
<feGaussianBlur stdDeviation="125" result="effect1_foregroundBlur"/>
</filter>
<filter id="filter5_f" x="-1157" y="-2189" width="4500" height="4500" filterUnits="userSpaceOnUse" color-interpolation-filters="sRGB">
<feFlood flood-opacity="0" result="BackgroundImageFix"/>
<feBlend mode="normal" in="SourceGraphic" in2="BackgroundImageFix" result="shape"/>
<feGaussianBlur stdDeviation="125" result="effect1_foregroundBlur"/>
</filter>
<filter id="filter6_f" x="145" y="78" width="1020.44" height="1020.44" filterUnits="userSpaceOnUse" color-interpolation-filters="sRGB">
<feFlood flood-opacity="0" result="BackgroundImageFix"/>
<feBlend mode="normal" in="SourceGraphic" in2="BackgroundImageFix" result="shape"/>
<feGaussianBlur stdDeviation="13" result="effect1_foregroundBlur"/>
</filter>
<filter id="filter7_f" x="1206" y="551" width="1652.05" height="1652.05" filterUnits="userSpaceOnUse" color-interpolation-filters="sRGB">
<feFlood flood-opacity="0" result="BackgroundImageFix"/>
<feBlend mode="normal" in="SourceGraphic" in2="BackgroundImageFix" result="shape"/>
<feGaussianBlur stdDeviation="12.5" result="effect1_foregroundBlur"/>
</filter>
<filter id="filter8_bf" x="455" y="255" width="2390" height="1490" filterUnits="userSpaceOnUse" color-interpolation-filters="sRGB">
<feFlood flood-opacity="0" result="BackgroundImageFix"/>
<feGaussianBlur in="BackgroundImage" stdDeviation="22.5"/>
<feComposite in2="SourceAlpha" operator="in" result="effect1_backgroundBlur"/>
<feBlend mode="normal" in="SourceGraphic" in2="effect1_backgroundBlur" result="shape"/>
<feGaussianBlur stdDeviation="1.5" result="effect2_foregroundBlur"/>
</filter>
<filter id="filter9_b" x="250" y="50" width="2800" height="1900" filterUnits="userSpaceOnUse" color-interpolation-filters="sRGB">
<feFlood flood-opacity="0" result="BackgroundImageFix"/>
<feGaussianBlur in="BackgroundImage" stdDeviation="125"/>
<feComposite in2="SourceAlpha" operator="in" result="effect1_backgroundBlur"/>
<feBlend mode="normal" in="SourceGraphic" in2="effect1_backgroundBlur" result="shape"/>
</filter>
<radialGradient id="paint0_radial" cx="0" cy="0" r="1" gradientUnits="userSpaceOnUse" gradientTransform="translate(2347 1000) rotate(90) scale(2000)">
<stop stop-color="#001D82"/>
<stop offset="1" stop-color="#001D82" stop-opacity="0"/>
</radialGradient>
<radialGradient id="paint1_radial" cx="0" cy="0" r="1" gradientUnits="userSpaceOnUse" gradientTransform="translate(4182 1000) rotate(90) scale(2000)">
<stop stop-color="#3E2F9A"/>
<stop offset="1" stop-color="#3E2F9A" stop-opacity="0"/>
</radialGradient>
<radialGradient id="paint2_radial" cx="0" cy="0" r="1" gradientUnits="userSpaceOnUse" gradientTransform="translate(2182 2497) rotate(90) scale(2000)">
<stop stop-color="white"/>
<stop offset="1" stop-color="white" stop-opacity="0"/>
</radialGradient>
<radialGradient id="paint3_radial" cx="0" cy="0" r="1" gradientUnits="userSpaceOnUse" gradientTransform="translate(2182 2497) rotate(90) scale(2000)">
<stop stop-color="#0076E3"/>
<stop offset="1" stop-color="#0076E3" stop-opacity="0"/>
</radialGradient>
<radialGradient id="paint4_radial" cx="0" cy="0" r="1" gradientUnits="userSpaceOnUse" gradientTransform="translate(-257 2206) rotate(90) scale(2000)">
<stop stop-color="#0076E3"/>
<stop offset="1" stop-color="#0076E3" stop-opacity="0"/>
</radialGradient>
<radialGradient id="paint5_radial" cx="0" cy="0" r="1" gradientUnits="userSpaceOnUse" gradientTransform="translate(1093 61) rotate(90) scale(2000)">
<stop stop-color="#95BDF9"/>
<stop offset="1" stop-color="#95BDF9" stop-opacity="0"/>
</radialGradient>
<radialGradient id="paint6_radial" cx="0" cy="0" r="1" gradientUnits="userSpaceOnUse" gradientTransform="translate(655.219 942.692) rotate(-90) scale(708.946 863.265)">
<stop stop-color="#2186EB" stop-opacity="0.67"/>
<stop offset="1" stop-color="#A368FC" stop-opacity="0.5"/>
</radialGradient>
<radialGradient id="paint7_radial" cx="0" cy="0" r="1" gradientUnits="userSpaceOnUse" gradientTransform="translate(2032.02 1963.42) rotate(-90) scale(1172.78 1428.07)">
<stop stop-color="#E6F6FF" stop-opacity="0.33"/>
<stop offset="1" stop-color="#0A8FAC" stop-opacity="0.67"/>
</radialGradient>
<linearGradient id="paint8_linear" x1="614.908" y1="300" x2="3003.6" y2="1958.47" gradientUnits="userSpaceOnUse">
<stop stop-color="#EEF4FA" stop-opacity="0.16"/>
<stop offset="1" stop-color="white" stop-opacity="0.3"/>
</linearGradient>
<linearGradient id="paint9_linear" x1="500" y1="359.117" x2="2762.95" y2="1759.86" gradientUnits="userSpaceOnUse">
<stop stop-color="white" stop-opacity="0"/>
<stop offset="1" stop-color="white" stop-opacity="0.5"/>
</linearGradient>
<radialGradient id="paint10_angular" cx="0" cy="0" r="1" gradientUnits="userSpaceOnUse" gradientTransform="translate(756.5 421.5) rotate(90) scale(58.5)">
<stop stop-color="#A368FC"/>
<stop offset="0.46875" stop-color="#2186EB"/>
<stop offset="0.645833" stop-color="#01337D"/>
<stop offset="0.911458" stop-color="#690CB0"/>
</radialGradient>
<clipPath id="clip0">
<rect width="3300" height="2050" rx="44" fill="white"/>
</clipPath>
</defs>
</svg>
