<svg width="114" height="69" viewBox="0 0 114 69" fill="none" xmlns="http://www.w3.org/2000/svg">
<path d="M57 0.0917969C41.8001 0.0917969 32.2999 7.73822 28.5 23.0306C34.2 15.3842 40.8499 12.5168 48.45 14.4286C52.786 15.5191 55.8854 18.6843 59.3161 22.1874C64.9047 27.8948 71.3725 34.5 85.5 34.5C100.7 34.5 110.2 26.8536 114 11.5612C108.3 19.2076 101.65 22.075 94.05 20.1633C89.714 19.0728 86.6146 15.9075 83.1839 12.4044C77.5953 6.69701 71.1275 0.0917969 57 0.0917969ZM28.5 34.5C13.3001 34.5 3.79985 42.1465 0 57.4389C5.7 49.7924 12.3499 46.9251 19.95 48.8368C24.286 49.9273 27.3854 53.0926 30.8161 56.5957C36.4047 62.3031 42.8725 68.9083 57 68.9083C72.1999 68.9083 81.7001 61.2619 85.5 45.9695C79.8 53.6159 73.1501 56.4832 65.55 54.5715C61.214 53.481 58.1146 50.3157 54.6839 46.8126C49.0953 41.1053 42.6275 34.5 28.5 34.5Z" fill="url(#paint0_linear)"/>
<defs>
<linearGradient id="paint0_linear" x1="-3.16692" y1="22.1131" x2="95.588" y2="78.7088" gradientUnits="userSpaceOnUse">
<stop stop-color="#2298BD"/>
<stop offset="1" stop-color="#0ED7B5"/>
</linearGradient>
</defs>
</svg>
